# xmcd
# 
# Track frame offsets:
#     150
#     43873
#     58768
#     101582
#     132872
#     148057
#     188498
#     202124
#     217864
# 
# Disc length: 3146
# 
# Revision: 22
# Processed by: cddbd v1.5.2PL0 Copyright (c) Steve Scherf et al.
# Submitted via: fre:ac v1.0.17
# 
DISCID=860c4809
DTITLE=Yes - The Yes Album
DYEAR=1971
DGENRE=Progressive Rock
TTITLE0=Yours Is No Disgrace
TTITLE1=Clap
TTITLE2=Starship Trooper(a-Life Seeker b-Disillusion c-Wurm)
TTITLE3=I've Seen All Good People (a-Your Move b-All Good People)
TTITLE4=A Venture
TTITLE5=Perpetual Change
TTITLE6=Your Move(Single Version)
TTITLE7=Life Seeker - Life Seeker(Single Version)
TTITLE8=Clap(Studio Version)
EXTD=X...U... YEAR: 1971
EXTT0=
EXTT1=
EXTT2=
EXTT3=
EXTT4=
EXTT5=
EXTT6=
EXTT7=
EXTT8=
PLAYORDER=
